<?xml version="1.0" encoding="utf-8"?>
<!-- Generator: Adobe Illustrator 25.4.1, SVG Export Plug-In . SVG Version: 6.00 Build 0)  -->
<svg version="1.1" id="Layer_1" xmlns="http://www.w3.org/2000/svg" xmlns:xlink="http://www.w3.org/1999/xlink" x="0px" y="0px"
	 viewBox="100 100 100 100" style="enable-background:new 0 0 300 300;" xml:space="preserve">
<style type="text/css">
	.st0{fill:#0077FF;}
	.st1{fill:#FFFFFF;}
</style>
<g>
	<path class="st0" d="M100,148c0-22.6,0-33.9,7-41c7-7,18.3-7,41-7h4c22.6,0,33.9,0,41,7c7,7,7,18.3,7,41v4c0,22.6,0,33.9-7,41
		c-7,7-18.3,7-41,7h-4c-22.6,0-33.9,0-41-7c-7-7-7-18.3-7-41V148z"/>
	<path class="st1" d="M153.2,172c-22.8,0-35.8-15.6-36.3-41.6h11.4c0.4,19.1,8.8,27.2,15.5,28.8v-28.8h10.8v16.5
		c6.6-0.7,13.5-8.2,15.8-16.5h10.8c-1.8,10.2-9.3,17.7-14.6,20.8c5.3,2.5,13.9,9,17.1,20.9h-11.8c-2.5-7.9-8.9-14-17.2-14.9V172
		H153.2z"/>
</g>
</svg>
