<svg id="main" xmlns="http://www.w3.org/2000/svg" viewBox="0 0 539.38 219.79"><defs><style>.cls-1{fill:#fff;}</style></defs><title>logo_white_borderless</title><g id="Group"><path id="bottom" class="cls-1" d="M594.91,470q-1.77,17-1.91,34.45a3.47,3.47,0,0,1-3.43,3.46l-217,2.36a3.49,3.49,0,0,1-3.24-4.86l15.53-36.17a5.23,5.23,0,0,1,3.94-2.68l202.64-.4A3.48,3.48,0,0,1,594.91,470Z" transform="translate(-130.31 -290.5)"/><path id="middle" class="cls-1" d="M617.07,382.58c-4.08,10.65-8.31,21.44-11.28,32.36-.41,1.51-2.41,2.56-4,2.56h-468a3.54,3.54,0,0,1-2.76-5.72l21.08-31.34a5.41,5.41,0,0,1,3.75-1.76l456.6-.84C614.94,377.83,618,380.29,617.07,382.58Z" transform="translate(-130.31 -290.5)"/><path id="top" class="cls-1" d="M669.49,292.77a401.62,401.62,0,0,0-23.81,34.09,3.44,3.44,0,0,1-2.93,1.64H282.9c-3,0-4.64-3.92-2.83-6.61l19.44-29a8.55,8.55,0,0,1,4.62-2.37H667.65C668.83,290.5,670.21,291.84,669.49,292.77Z" transform="translate(-130.31 -290.5)"/></g></svg>